<?xml version="1.0" encoding="UTF-8" standalone="no"?>
<!-- Generator: Adobe Illustrator 19.0.0, SVG Export Plug-In . SVG Version: 6.00 Build 0)  -->

<svg
   xmlns:dc="http://purl.org/dc/elements/1.1/"
   xmlns:cc="http://creativecommons.org/ns#"
   xmlns:rdf="http://www.w3.org/1999/02/22-rdf-syntax-ns#"
   xmlns:svg="http://www.w3.org/2000/svg"
   xmlns="http://www.w3.org/2000/svg"
   xmlns:sodipodi="http://sodipodi.sourceforge.net/DTD/sodipodi-0.dtd"
   xmlns:inkscape="http://www.inkscape.org/namespaces/inkscape"
   version="1.1"
   id="Capa_1"
   x="0px"
   y="0px"
   viewBox="0 0 60 60"
   style="enable-background:new 0 0 60 60;"
   xml:space="preserve"
   inkscape:version="0.91 r13725"
   sodipodi:docname="compose.svg"><metadata
     id="metadata39"><rdf:RDF><cc:Work
         rdf:about=""><dc:format>image/svg+xml</dc:format><dc:type
           rdf:resource="http://purl.org/dc/dcmitype/StillImage" /></cc:Work></rdf:RDF></metadata><defs
     id="defs37" /><sodipodi:namedview
     pagecolor="#ffffff"
     bordercolor="#666666"
     borderopacity="1"
     objecttolerance="10"
     gridtolerance="10"
     guidetolerance="10"
     inkscape:pageopacity="0"
     inkscape:pageshadow="2"
     inkscape:window-width="1871"
     inkscape:window-height="1056"
     id="namedview35"
     showgrid="false"
     inkscape:zoom="3.9333333"
     inkscape:cx="-18.177966"
     inkscape:cy="30"
     inkscape:window-x="49"
     inkscape:window-y="24"
     inkscape:window-maximized="1"
     inkscape:current-layer="Capa_1" /><path
     d="m 49.632642,9.9962075 0,-0.0187 -0.289815,-0.275793 C 49.210073,9.5755085 49.072644,9.4567775 48.937085,9.3333725 48.876318,9.2772795 48.81555,9.2221205 48.754783,9.1678975 48.476186,8.9164125 48.192915,8.6714719 47.905904,8.4321406 47.854485,8.3891358 47.802132,8.3461309 47.750713,8.304061 47.447809,8.055381 47.140231,7.8141799 46.827979,7.5785882 46.78871,7.5486722 46.749452,7.5196905 46.710184,7.4907088 46.381103,7.2457682 46.048283,7.0083067 45.710788,6.7792592 45.68368,6.7605613 45.656562,6.7427987 45.629454,6.7241008 45.279805,6.4885092 44.925482,6.2613315 44.566486,6.0425677 44.544048,6.0285444 44.521611,6.0145211 44.498238,6.0014327 44.135502,5.781734 43.768092,5.5704494 43.396006,5.3675787 43.370764,5.3535555 43.346457,5.340467 43.321215,5.3264437 42.95287,5.1273127 42.580784,4.9365955 42.204959,4.7542924 42.170369,4.7374645 42.134842,4.7206365 42.100252,4.7038086 41.734711,4.5280496 41.366365,4.3616397 40.993345,4.2027087 40.941926,4.1812063 40.891442,4.158769 40.840023,4.1372666 40.484766,3.9886194 40.126704,3.8474513 39.764902,3.7128275 c -0.01309,-0.00467 -0.02524,-0.010286 -0.03833,-0.014959 -0.01309,-0.00561 -0.02711,-0.010286 -0.0402,-0.015893 -0.04675,-0.017762 -0.09443,-0.033656 -0.141168,-0.050484 C 39.204904,3.5080872 38.862736,3.393096 38.517762,3.2827793 38.420533,3.251928 38.323306,3.2192069 38.225142,3.1892904 37.902606,3.0901923 37.577265,2.9985734 37.250054,2.9116288 37.128519,2.8789078 37.006983,2.8443169 36.884513,2.8134656 36.57787,2.73587 36.269357,2.6666882 35.958974,2.5993763 35.815936,2.568525 35.672899,2.5348691 35.528926,2.5058875 35.234437,2.4469896 34.938077,2.3965057 34.641718,2.3469566 34.480917,2.3198449 34.321987,2.2899285 34.160251,2.2665563 33.870436,2.2235515 33.577816,2.1889606 33.286131,2.1553047 33.117851,2.1356721 32.95144,2.1122998 32.783161,2.0954718 32.471843,2.0646205 32.158657,2.044053 31.845469,2.0234855 31.694952,2.0141355 31.546304,1.9991785 31.395788,1.9916995 30.933953,1.9655225 30.468379,1.9533695 30,1.9533695 c -0.468379,0 -0.933953,0.012154 -1.398591,0.035526 -0.150518,0.00748 -0.299165,0.022437 -0.449682,0.031786 -0.313187,0.020568 -0.626374,0.041135 -0.937692,0.071987 -0.169214,0.016828 -0.335625,0.0402 -0.50297,0.059833 -0.29262,0.034591 -0.584305,0.068247 -0.87412,0.1112517 -0.161735,0.024307 -0.320666,0.054224 -0.481466,0.080401 -0.29636,0.049549 -0.592719,0.1000329 -0.887209,0.1589309 -0.143973,0.028982 -0.287011,0.062637 -0.430049,0.093488 -0.309447,0.067312 -0.618896,0.1364936 -0.925538,0.2140893 -0.122471,0.030851 -0.244006,0.065442 -0.365542,0.098163 -0.326275,0.086944 -0.651617,0.1785635 -0.975087,0.2776616 -0.09817,0.029916 -0.194457,0.061703 -0.29262,0.093489 -0.344974,0.109382 -0.687143,0.225308 -1.027442,0.3487132 -0.04675,0.016828 -0.09443,0.033656 -0.141168,0.050484 -0.01403,0.00561 -0.02711,0.010286 -0.0402,0.015893 -0.01309,0.00467 -0.02524,0.010286 -0.03834,0.014959 -0.360866,0.1346238 -0.719863,0.2757919 -1.07512,0.4244391 -0.05142,0.021502 -0.101906,0.043939 -0.153322,0.065442 -0.372085,0.1589309 -0.741366,0.325341 -1.106907,0.5010998 -0.03459,0.016828 -0.07011,0.033657 -0.104707,0.050484 -0.375825,0.1823031 -0.747911,0.3730202 -1.116257,0.5721513 -0.02524,0.014023 -0.05049,0.027112 -0.07479,0.041135 -0.372086,0.2028707 -0.738562,0.4141553 -1.102233,0.6338538 -0.02244,0.014023 -0.04487,0.028046 -0.06824,0.041135 -0.358997,0.2187637 -0.71332,0.4459415 -1.062968,0.6815332 -0.02711,0.018698 -0.05423,0.03646 -0.08133,0.055158 -0.337495,0.2290475 -0.671249,0.4665089 -0.999395,0.7114495 -0.03927,0.028982 -0.07853,0.058898 -0.117796,0.087879 -0.312255,0.2346572 -0.618898,0.476793 -0.922737,0.7254732 -0.05235,0.04207 -0.103773,0.085074 -0.155191,0.1280796 -0.287011,0.2393313 -0.569347,0.4842719 -0.848878,0.7357568 -0.06076,0.05516 -0.121535,0.110317 -0.182304,0.165475 -0.131818,0.12621 -0.270182,0.244941 -0.402936,0.37115 l -0.289816,0.275792 0,0.0187 C 5.1796666,15.088541 1.9533692,22.17312 1.9533692,30 1.9533692,45.464913 14.535088,58.046631 30,58.046631 45.464913,58.046631 58.046631,45.464913 58.046631,30 c 0,-7.82688 -3.226297,-14.911459 -8.413989,-20.0037925 z m -19.64199,40.5357965 0.0056,0.0075 -0.01496,0 0.0093,-0.0075 z M 22.530248,39.762098 C 24.471075,37.708149 27.153268,36.544214 30,36.544214 c 2.846734,0 5.528926,1.163935 7.469753,3.217884 L 30,49.120324 22.530248,39.762098 Z M 38.639297,38.297129 C 36.361911,35.987022 33.276782,34.674439 30,34.674439 c -3.276781,0 -6.361911,1.312583 -8.639297,3.62269 l -8.744939,-10.955015 8.035359,-6.429222 8.427078,6.74241 0.0019,0.09069 0.284206,0.138363 0.50484,0.37302 0.143973,-0.07012 0.155191,0.07105 0.461835,-0.370216 0.304773,-0.16641 0,-0.07573 8.413989,-6.732125 8.03536,6.428287 -8.74494,10.955015 z M 12.406348,10.632866 c 0.0028,-0.0028 0.0056,-0.0056 0.0093,-0.0075 1.545369,-1.4042015 3.259018,-2.6260993 5.106356,-3.6320385 0.01122,-0.00561 0.02244,-0.012154 0.03365,-0.017763 0.352452,-0.190717 0.709579,-0.373955 1.07138,-0.5497139 0.03179,-0.014959 0.06264,-0.029916 0.09443,-0.044875 0.327211,-0.1570611 0.659096,-0.3066432 0.994721,-0.4506158 l 0,13.3371092 -7.479102,5.982345 0,-14.455233 c 0.05705,-0.05329 0.112212,-0.109383 0.16924,-0.161737 z m 9.965904,-5.6728982 c 0.28888,-0.08788 0.580565,-0.1701496 0.87412,-0.2486802 0.124339,-0.033655 0.249615,-0.067312 0.37489,-0.098163 0.274857,-0.069182 0.551584,-0.1318192 0.829245,-0.191652 0.143038,-0.030851 0.286076,-0.063572 0.430984,-0.091619 0.264572,-0.052353 0.531016,-0.098163 0.798393,-0.1430378 0.156126,-0.026177 0.312253,-0.054223 0.469314,-0.077596 0.264574,-0.039265 0.531951,-0.071051 0.798394,-0.1019026 0.158931,-0.018698 0.316927,-0.0402 0.475857,-0.056093 0.285142,-0.028046 0.573087,-0.046744 0.861032,-0.065442 0.141169,-0.00935 0.280467,-0.022437 0.42257,-0.029916 0.117795,-0.00561 0.238396,-0.00467 0.358062,-0.00935 l 0,21.4042538 -7.479102,-5.983281 0,-14.0494925 c 0.157996,-0.054223 0.315058,-0.1103168 0.474923,-0.1608007 0.102838,-0.032721 0.20661,-0.065442 0.311318,-0.097228 z m 9.343267,-1.074186 c 0.287945,0.018698 0.575892,0.037396 0.861032,0.065442 0.158931,0.015893 0.317861,0.037396 0.475858,0.056093 0.267377,0.030851 0.533821,0.062637 0.798394,0.1019026 0.157061,0.023373 0.313187,0.051419 0.469313,0.077596 0.267379,0.044874 0.533821,0.090685 0.798395,0.1430378 0.143972,0.028982 0.28701,0.060767 0.430983,0.091619 0.277662,0.059833 0.555323,0.1234052 0.829245,0.191652 0.125275,0.031786 0.249616,0.065442 0.37489,0.098163 0.293555,0.078531 0.58524,0.1608007 0.87412,0.2486802 0.103773,0.031786 0.207545,0.064507 0.311318,0.097228 0.159866,0.051419 0.316927,0.1075121 0.474923,0.1608007 l 0,14.0494929 -7.479102,5.983281 0,-21.4042542 c 0.119666,0.00374 0.240266,0.00281 0.358997,0.00935 0.141168,0.00655 0.281401,0.020568 0.421634,0.029916 z m 9.658325,2.5400898 c 0.361802,0.175759 0.718929,0.358062 1.071381,0.549714 0.01122,0.00561 0.02244,0.012154 0.03365,0.017762 1.847339,1.0059392 3.560988,2.2278369 5.106357,3.6320394 0.0028,0.0028 0.0056,0.0047 0.0093,0.0075 0.05609,0.05235 0.111251,0.108447 0.168279,0.161735 l 0,14.455233 -7.479101,-5.982346 0,-13.3371076 c 0.335625,0.1439727 0.66751,0.2935547 0.995656,0.4506158 0.03179,0.015893 0.06357,0.029916 0.09443,0.044875 z M 30,56.176856 C 15.566269,56.176856 3.8231446,44.433731 3.8231446,30 c 0,-6.621809 2.4755826,-12.672403 6.5442134,-17.287008 l 0,13.964418 0,0.845138 18.708973,23.437634 0.0047,0.187913 9.36e-4,0 0,0.01026 0.299163,0.140233 0.463704,0.364606 0.0187,-0.0084 0.0065,0.0047 0.143972,-0.07012 0.147713,0.06731 0.0075,-0.0056 0.01683,0.0075 0.437528,-0.362736 0.129014,-0.07105 0.182304,-0.09255 0,-0.0093 0,-0.176696 18.697753,-23.423611 0,-0.845138 0,-13.964417 c 4.068631,4.614604 6.544215,10.665198 6.544215,17.287007 0,14.433732 -11.743125,26.176856 -26.176857,26.176856 z"
     id="path3"
     style="fill:#ffffff;fill-opacity:1;stroke:#ffffff;stroke-width:2;stroke-miterlimit:4;stroke-dasharray:none;stroke-opacity:1"
     inkscape:connector-curvature="0" /><g
     id="g5"
     style="fill:#ececec;stroke:#000000;stroke-opacity:1;stroke-width:2.21596245;stroke-miterlimit:4;stroke-dasharray:none"
     transform="scale(0.90254237,0.90254237)" /><g
     id="g7"
     style="fill:#ececec;stroke:#000000;stroke-opacity:1;stroke-width:2.21596245;stroke-miterlimit:4;stroke-dasharray:none"
     transform="scale(0.90254237,0.90254237)" /><g
     id="g9"
     style="fill:#ececec;stroke:#000000;stroke-opacity:1;stroke-width:2.21596245;stroke-miterlimit:4;stroke-dasharray:none"
     transform="scale(0.90254237,0.90254237)" /><g
     id="g11"
     style="fill:#ececec;stroke:#000000;stroke-opacity:1;stroke-width:2.21596245;stroke-miterlimit:4;stroke-dasharray:none"
     transform="scale(0.90254237,0.90254237)" /><g
     id="g13"
     style="fill:#ececec;stroke:#000000;stroke-opacity:1;stroke-width:2.21596245;stroke-miterlimit:4;stroke-dasharray:none"
     transform="scale(0.90254237,0.90254237)" /><g
     id="g15"
     style="fill:#ececec;stroke:#000000;stroke-opacity:1;stroke-width:2.21596245;stroke-miterlimit:4;stroke-dasharray:none"
     transform="scale(0.90254237,0.90254237)" /><g
     id="g17"
     style="fill:#ececec;stroke:#000000;stroke-opacity:1;stroke-width:2.21596245;stroke-miterlimit:4;stroke-dasharray:none"
     transform="scale(0.90254237,0.90254237)" /><g
     id="g19"
     style="fill:#ececec;stroke:#000000;stroke-opacity:1;stroke-width:2.21596245;stroke-miterlimit:4;stroke-dasharray:none"
     transform="scale(0.90254237,0.90254237)" /><g
     id="g21"
     style="fill:#ececec;stroke:#000000;stroke-opacity:1;stroke-width:2.21596245;stroke-miterlimit:4;stroke-dasharray:none"
     transform="scale(0.90254237,0.90254237)" /><g
     id="g23"
     style="fill:#ececec;stroke:#000000;stroke-opacity:1;stroke-width:2.21596245;stroke-miterlimit:4;stroke-dasharray:none"
     transform="scale(0.90254237,0.90254237)" /><g
     id="g25"
     style="fill:#ececec;stroke:#000000;stroke-opacity:1;stroke-width:2.21596245;stroke-miterlimit:4;stroke-dasharray:none"
     transform="scale(0.90254237,0.90254237)" /><g
     id="g27"
     style="fill:#ececec;stroke:#000000;stroke-opacity:1;stroke-width:2.21596245;stroke-miterlimit:4;stroke-dasharray:none"
     transform="scale(0.90254237,0.90254237)" /><g
     id="g29"
     style="fill:#ececec;stroke:#000000;stroke-opacity:1;stroke-width:2.21596245;stroke-miterlimit:4;stroke-dasharray:none"
     transform="scale(0.90254237,0.90254237)" /><g
     id="g31"
     style="fill:#ececec;stroke:#000000;stroke-opacity:1;stroke-width:2.21596245;stroke-miterlimit:4;stroke-dasharray:none"
     transform="scale(0.90254237,0.90254237)" /><g
     id="g33"
     style="fill:#ececec;stroke:#000000;stroke-opacity:1;stroke-width:2.21596245;stroke-miterlimit:4;stroke-dasharray:none"
     transform="scale(0.90254237,0.90254237)" /></svg>