<?xml version="1.0" encoding="UTF-8" standalone="no"?>
<!-- Generator: Adobe Illustrator 19.0.0, SVG Export Plug-In . SVG Version: 6.00 Build 0)  -->

<svg
   xmlns:dc="http://purl.org/dc/elements/1.1/"
   xmlns:cc="http://creativecommons.org/ns#"
   xmlns:rdf="http://www.w3.org/1999/02/22-rdf-syntax-ns#"
   xmlns:svg="http://www.w3.org/2000/svg"
   xmlns="http://www.w3.org/2000/svg"
   xmlns:sodipodi="http://sodipodi.sourceforge.net/DTD/sodipodi-0.dtd"
   xmlns:inkscape="http://www.inkscape.org/namespaces/inkscape"
   version="1.1"
   id="Capa_1"
   x="0px"
   y="0px"
   viewBox="0 0 60 60"
   style="enable-background:new 0 0 60 60;"
   xml:space="preserve"
   inkscape:version="0.91 r13725"
   sodipodi:docname="calendar_white.svg"><metadata
     id="metadata43"><rdf:RDF><cc:Work
         rdf:about=""><dc:format>image/svg+xml</dc:format><dc:type
           rdf:resource="http://purl.org/dc/dcmitype/StillImage" /></cc:Work></rdf:RDF></metadata><defs
     id="defs41" /><sodipodi:namedview
     pagecolor="#ffffff"
     bordercolor="#666666"
     borderopacity="1"
     objecttolerance="10"
     gridtolerance="10"
     guidetolerance="10"
     inkscape:pageopacity="0"
     inkscape:pageshadow="2"
     inkscape:window-width="741"
     inkscape:window-height="480"
     id="namedview39"
     showgrid="false"
     inkscape:zoom="3.9333333"
     inkscape:cx="30"
     inkscape:cy="30"
     inkscape:window-x="49"
     inkscape:window-y="24"
     inkscape:window-maximized="0"
     inkscape:current-layer="Capa_1" /><g
     id="g3"
     style="fill:#ffffff;fill-opacity:1"><path
       d="M57,4h-7V1c0-0.553-0.447-1-1-1h-7c-0.553,0-1,0.447-1,1v3H19V1c0-0.553-0.447-1-1-1h-7c-0.553,0-1,0.447-1,1v3H3   C2.447,4,2,4.447,2,5v11v43c0,0.553,0.447,1,1,1h54c0.553,0,1-0.447,1-1V16V5C58,4.447,57.553,4,57,4z M43,2h5v3v3h-5V5V2z M12,2h5   v3v3h-5V5V2z M4,6h6v3c0,0.553,0.447,1,1,1h7c0.553,0,1-0.447,1-1V6h22v3c0,0.553,0.447,1,1,1h7c0.553,0,1-0.447,1-1V6h6v9H4V6z    M4,58V17h52v41H4z"
       id="path5"
       style="fill:#ffffff;fill-opacity:1" /><path
       d="M38,23h-7h-2h-7h-2h-9v9v2v7v2v9h9h2h7h2h7h2h9v-9v-2v-7v-2v-9h-9H38z M31,25h7v7h-7V25z M38,41h-7v-7h7V41z M22,34h7v7h-7   V34z M22,25h7v7h-7V25z M13,25h7v7h-7V25z M13,34h7v7h-7V34z M20,50h-7v-7h7V50z M29,50h-7v-7h7V50z M38,50h-7v-7h7V50z M47,50h-7   v-7h7V50z M47,41h-7v-7h7V41z M47,25v7h-7v-7H47z"
       id="path7"
       style="fill:#ffffff;fill-opacity:1" /></g><g
     id="g9"
     style="fill:#ffffff;fill-opacity:1" /><g
     id="g11"
     style="fill:#ffffff;fill-opacity:1" /><g
     id="g13"
     style="fill:#ffffff;fill-opacity:1" /><g
     id="g15"
     style="fill:#ffffff;fill-opacity:1" /><g
     id="g17"
     style="fill:#ffffff;fill-opacity:1" /><g
     id="g19"
     style="fill:#ffffff;fill-opacity:1" /><g
     id="g21"
     style="fill:#ffffff;fill-opacity:1" /><g
     id="g23"
     style="fill:#ffffff;fill-opacity:1" /><g
     id="g25"
     style="fill:#ffffff;fill-opacity:1" /><g
     id="g27"
     style="fill:#ffffff;fill-opacity:1" /><g
     id="g29"
     style="fill:#ffffff;fill-opacity:1" /><g
     id="g31"
     style="fill:#ffffff;fill-opacity:1" /><g
     id="g33"
     style="fill:#ffffff;fill-opacity:1" /><g
     id="g35"
     style="fill:#ffffff;fill-opacity:1" /><g
     id="g37"
     style="fill:#ffffff;fill-opacity:1" /></svg>