<svg xmlns:dc="http://purl.org/dc/elements/1.1/" xmlns:cc="http://creativecommons.org/ns#" xmlns:rdf="http://www.w3.org/1999/02/22-rdf-syntax-ns#" xmlns:svg="http://www.w3.org/2000/svg" xmlns="http://www.w3.org/2000/svg" xmlns:sodipodi="http://sodipodi.sourceforge.net/DTD/sodipodi-0.dtd" xmlns:inkscape="http://www.inkscape.org/namespaces/inkscape" x="0px" y="0px" viewBox="0 0 59 59" style="enable-background:new 0 0 59 59;" xml:space="preserve"><g style="fill:#02b902;fill-opacity:1"><path d="M52 21c-0.553 0-1 0.447-1 1v32H2V5h49v1c0 0.6 0.4 1 1 1s1-0.447 1-1V3H0v53h53V22C53 21.4 52.6 21 52 21z" style="fill:#02b902;fill-opacity:1"/><path d="M58.707 7.293c-0.391-0.391-1.023-0.391-1.414 0L27 37.586l-13.07-13.07c-0.391-0.391-1.023-0.391-1.414 0 s-0.391 1 0 1.414l13.777 13.777C26.488 39.9 26.7 40 27 40s0.512-0.098 0.707-0.293l31-31 C59.098 8.3 59.1 7.7 58.7 7.293z" style="fill:#02b902;fill-opacity:1"/></g><g/><g/><g/><g/><g/><g/><g/><g/><g/><g/><g/><g/><g/><g/><g/></svg>