<svg xmlns:dc="http://purl.org/dc/elements/1.1/" xmlns:cc="http://creativecommons.org/ns#" xmlns:rdf="http://www.w3.org/1999/02/22-rdf-syntax-ns#" xmlns:svg="http://www.w3.org/2000/svg" xmlns="http://www.w3.org/2000/svg" xmlns:sodipodi="http://sodipodi.sourceforge.net/DTD/sodipodi-0.dtd" xmlns:inkscape="http://www.inkscape.org/namespaces/inkscape" x="0px" y="0px" viewBox="0 0 60 60" style="enable-background:new 0 0 60 60;" xml:space="preserve"><path d="m 49.6 10 0 -0 -0.3 -0.3 C 49.2 9.6 49.1 9.5 48.9 9.3 48.9 9.3 48.8 9.2 48.8 9.2 48.5 8.9 48.2 8.7 47.9 8.4 47.9 8.4 47.8 8.3 47.8 8.3 47.4 8.1 47.1 7.8 46.8 7.6 46.8 7.5 46.7 7.5 46.7 7.5 46.4 7.2 46 7 45.7 6.8 45.7 6.8 45.7 6.7 45.6 6.7 45.3 6.5 44.9 6.3 44.6 6 44.5 6 44.5 6 44.5 6 44.1 5.8 43.8 5.6 43.4 5.4 43.4 5.4 43.3 5.3 43.3 5.3 43 5.1 42.6 4.9 42.2 4.8 42.2 4.7 42.1 4.7 42.1 4.7 41.7 4.5 41.4 4.4 41 4.2 40.9 4.2 40.9 4.2 40.8 4.1 40.5 4 40.1 3.8 39.8 3.7 c -0 -0 -0 -0 -0 -0 -0 -0 -0 -0 -0 -0 -0 -0 -0.1 -0 -0.1 -0.1 C 39.2 3.5 38.9 3.4 38.5 3.3 38.4 3.3 38.3 3.2 38.2 3.2 37.9 3.1 37.6 3 37.3 2.9 37.1 2.9 37 2.8 36.9 2.8 36.6 2.7 36.3 2.7 36 2.6 35.8 2.6 35.7 2.5 35.5 2.5 35.2 2.4 34.9 2.4 34.6 2.3 34.5 2.3 34.3 2.3 34.2 2.3 33.9 2.2 33.6 2.2 33.3 2.2 33.1 2.1 33 2.1 32.8 2.1 32.5 2.1 32.2 2 31.8 2 31.7 2 31.5 2 31.4 2 30.9 2 30.5 2 30 2 c -0.5 0 -0.9 0 -1.4 0 -0.2 0 -0.3 0 -0.4 0 -0.3 0 -0.6 0 -0.9 0.1 -0.2 0 -0.3 0 -0.5 0.1 -0.3 0 -0.6 0.1 -0.9 0.1 -0.2 0 -0.3 0.1 -0.5 0.1 -0.3 0 -0.6 0.1 -0.9 0.2 -0.1 0 -0.3 0.1 -0.4 0.1 -0.3 0.1 -0.6 0.1 -0.9 0.2 -0.1 0 -0.2 0.1 -0.4 0.1 -0.3 0.1 -0.7 0.2 -1 0.3 -0.1 0 -0.2 0.1 -0.3 0.1 -0.3 0.1 -0.7 0.2 -1 0.3 -0 0 -0.1 0 -0.1 0.1 -0 0 -0 0 -0 0 -0 0 -0 0 -0 0 -0.4 0.1 -0.7 0.3 -1.1 0.4 -0.1 0 -0.1 0 -0.2 0.1 -0.4 0.2 -0.7 0.3 -1.1 0.5 -0 0 -0.1 0 -0.1 0.1 -0.4 0.2 -0.7 0.4 -1.1 0.6 -0 0 -0.1 0 -0.1 0 -0.4 0.2 -0.7 0.4 -1.1 0.6 -0 0 -0 0 -0.1 0 -0.4 0.2 -0.7 0.4 -1.1 0.7 -0 0 -0.1 0 -0.1 0.1 -0.3 0.2 -0.7 0.5 -1 0.7 -0 0 -0.1 0.1 -0.1 0.1 -0.3 0.2 -0.6 0.5 -0.9 0.7 -0.1 0 -0.1 0.1 -0.2 0.1 -0.3 0.2 -0.6 0.5 -0.8 0.7 -0.1 0.1 -0.1 0.1 -0.2 0.2 -0.1 0.1 -0.3 0.2 -0.4 0.4 l -0.3 0.3 0 0 C 5.2 15.1 2 22.2 2 30 2 45.5 14.5 58 30 58 45.5 58 58 45.5 58 30 c 0 -7.8 -3.2 -14.9 -8.4 -20 z m -19.6 40.5 0 0 -0 0 0 -0 z M 22.5 39.8 C 24.5 37.7 27.2 36.5 30 36.5 c 2.8 0 5.5 1.2 7.5 3.2 L 30 49.1 22.5 39.8 Z M 38.6 38.3 C 36.4 36 33.3 34.7 30 34.7 c -3.3 0 -6.4 1.3 -8.6 3.6 l -8.7 -11 8 -6.4 8.4 6.7 0 0.1 0.3 0.1 0.5 0.4 0.1 -0.1 0.2 0.1 0.5 -0.4 0.3 -0.2 0 -0.1 8.4 -6.7 8 6.4 -8.7 11 z M 12.4 10.6 c 0 -0 0 -0 0 -0 1.5 -1.4 3.3 -2.6 5.1 -3.6 0 -0 0 -0 0 -0 0.4 -0.2 0.7 -0.4 1.1 -0.5 0 -0 0.1 -0 0.1 -0 0.3 -0.2 0.7 -0.3 1 -0.5 l 0 13.3 -7.5 6 0 -14.5 c 0.1 -0.1 0.1 -0.1 0.2 -0.2 z m 10 -5.7 c 0.3 -0.1 0.6 -0.2 0.9 -0.2 0.1 -0 0.2 -0.1 0.4 -0.1 0.3 -0.1 0.6 -0.1 0.8 -0.2 0.1 -0 0.3 -0.1 0.4 -0.1 0.3 -0.1 0.5 -0.1 0.8 -0.1 0.2 -0 0.3 -0.1 0.5 -0.1 0.3 -0 0.5 -0.1 0.8 -0.1 0.2 -0 0.3 -0 0.5 -0.1 0.3 -0 0.6 -0 0.9 -0.1 0.1 -0 0.3 -0 0.4 -0 0.1 -0 0.2 -0 0.4 -0 l 0 21.4 -7.5 -6 0 -14 c 0.2 -0.1 0.3 -0.1 0.5 -0.2 0.1 -0 0.2 -0.1 0.3 -0.1 z m 9.3 -1.1 c 0.3 0 0.6 0 0.9 0.1 0.2 0 0.3 0 0.5 0.1 0.3 0 0.5 0.1 0.8 0.1 0.2 0 0.3 0.1 0.5 0.1 0.3 0 0.5 0.1 0.8 0.1 0.1 0 0.3 0.1 0.4 0.1 0.3 0.1 0.6 0.1 0.8 0.2 0.1 0 0.2 0.1 0.4 0.1 0.3 0.1 0.6 0.2 0.9 0.2 0.1 0 0.2 0.1 0.3 0.1 0.2 0.1 0.3 0.1 0.5 0.2 l 0 14 -7.5 6 0 -21.4 c 0.1 0 0.2 0 0.4 0 0.1 0 0.3 0 0.4 0 z m 9.7 2.5 c 0.4 0.2 0.7 0.4 1.1 0.5 0 0 0 0 0 0 1.8 1 3.6 2.2 5.1 3.6 0 0 0 0 0 0 0.1 0.1 0.1 0.1 0.2 0.2 l 0 14.5 -7.5 -6 0 -13.3 c 0.3 0.1 0.7 0.3 1 0.5 0 0 0.1 0 0.1 0 z M 30 56.2 C 15.6 56.2 3.8 44.4 3.8 30 c 0 -6.6 2.5 -12.7 6.5 -17.3 l 0 14 0 0.8 18.7 23.4 0 0.2 0 0 0 0 0.3 0.1 0.5 0.4 0 -0 0 0 0.1 -0.1 0.1 0.1 0 -0 0 0 0.4 -0.4 0.1 -0.1 0.2 -0.1 0 -0 0 -0.2 18.7 -23.4 0 -0.8 0 -14 c 4.1 4.6 6.5 10.7 6.5 17.3 0 14.4 -11.7 26.2 -26.2 26.2 z" style="fill:#4d4d4d;fill-opacity:1;stroke:#4d4d4d;stroke-width:2;stroke-miterlimit:4;stroke-dasharray:none;stroke-opacity:1"/><g style="fill:#4d4d4d;stroke:#4d4d4d;stroke-opacity:1;stroke-width:2.21596245;stroke-miterlimit:4;stroke-dasharray:none;fill-opacity:1" transform="scale(0.90254237,0.90254237)"/><g style="fill:#4d4d4d;stroke:#4d4d4d;stroke-opacity:1;stroke-width:2.21596245;stroke-miterlimit:4;stroke-dasharray:none;fill-opacity:1" transform="scale(0.90254237,0.90254237)"/><g style="fill:#4d4d4d;stroke:#4d4d4d;stroke-opacity:1;stroke-width:2.21596245;stroke-miterlimit:4;stroke-dasharray:none;fill-opacity:1" transform="scale(0.90254237,0.90254237)"/><g style="fill:#4d4d4d;stroke:#4d4d4d;stroke-opacity:1;stroke-width:2.21596245;stroke-miterlimit:4;stroke-dasharray:none;fill-opacity:1" transform="scale(0.90254237,0.90254237)"/><g style="fill:#4d4d4d;stroke:#4d4d4d;stroke-opacity:1;stroke-width:2.21596245;stroke-miterlimit:4;stroke-dasharray:none;fill-opacity:1" transform="scale(0.90254237,0.90254237)"/><g style="fill:#4d4d4d;stroke:#4d4d4d;stroke-opacity:1;stroke-width:2.21596245;stroke-miterlimit:4;stroke-dasharray:none;fill-opacity:1" transform="scale(0.90254237,0.90254237)"/><g style="fill:#4d4d4d;stroke:#4d4d4d;stroke-opacity:1;stroke-width:2.21596245;stroke-miterlimit:4;stroke-dasharray:none;fill-opacity:1" transform="scale(0.90254237,0.90254237)"/><g style="fill:#4d4d4d;stroke:#4d4d4d;stroke-opacity:1;stroke-width:2.21596245;stroke-miterlimit:4;stroke-dasharray:none;fill-opacity:1" transform="scale(0.90254237,0.90254237)"/><g style="fill:#4d4d4d;stroke:#4d4d4d;stroke-opacity:1;stroke-width:2.21596245;stroke-miterlimit:4;stroke-dasharray:none;fill-opacity:1" transform="scale(0.90254237,0.90254237)"/><g style="fill:#4d4d4d;stroke:#4d4d4d;stroke-opacity:1;stroke-width:2.21596245;stroke-miterlimit:4;stroke-dasharray:none;fill-opacity:1" transform="scale(0.90254237,0.90254237)"/><g style="fill:#4d4d4d;stroke:#4d4d4d;stroke-opacity:1;stroke-width:2.21596245;stroke-miterlimit:4;stroke-dasharray:none;fill-opacity:1" transform="scale(0.90254237,0.90254237)"/><g style="fill:#4d4d4d;stroke:#4d4d4d;stroke-opacity:1;stroke-width:2.21596245;stroke-miterlimit:4;stroke-dasharray:none;fill-opacity:1" transform="scale(0.90254237,0.90254237)"/><g style="fill:#4d4d4d;stroke:#4d4d4d;stroke-opacity:1;stroke-width:2.21596245;stroke-miterlimit:4;stroke-dasharray:none;fill-opacity:1" transform="scale(0.90254237,0.90254237)"/><g style="fill:#4d4d4d;stroke:#4d4d4d;stroke-opacity:1;stroke-width:2.21596245;stroke-miterlimit:4;stroke-dasharray:none;fill-opacity:1" transform="scale(0.90254237,0.90254237)"/><g style="fill:#4d4d4d;stroke:#4d4d4d;stroke-opacity:1;stroke-width:2.21596245;stroke-miterlimit:4;stroke-dasharray:none;fill-opacity:1" transform="scale(0.90254237,0.90254237)"/></svg>