<?xml version="1.0" encoding="UTF-8" standalone="no"?>
<!-- Generator: Adobe Illustrator 19.0.0, SVG Export Plug-In . SVG Version: 6.00 Build 0)  -->

<svg
   xmlns:dc="http://purl.org/dc/elements/1.1/"
   xmlns:cc="http://creativecommons.org/ns#"
   xmlns:rdf="http://www.w3.org/1999/02/22-rdf-syntax-ns#"
   xmlns:svg="http://www.w3.org/2000/svg"
   xmlns="http://www.w3.org/2000/svg"
   xmlns:sodipodi="http://sodipodi.sourceforge.net/DTD/sodipodi-0.dtd"
   xmlns:inkscape="http://www.inkscape.org/namespaces/inkscape"
   version="1.1"
   id="Capa_1"
   x="0px"
   y="0px"
   viewBox="0 0 56 56"
   style="enable-background:new 0 0 56 56;"
   xml:space="preserve"
   inkscape:version="0.91 r13725"
   sodipodi:docname="components_white.svg"><metadata
     id="metadata57"><rdf:RDF><cc:Work
         rdf:about=""><dc:format>image/svg+xml</dc:format><dc:type
           rdf:resource="http://purl.org/dc/dcmitype/StillImage" /></cc:Work></rdf:RDF></metadata><defs
     id="defs55" /><sodipodi:namedview
     pagecolor="#ffffff"
     bordercolor="#666666"
     borderopacity="1"
     objecttolerance="10"
     gridtolerance="10"
     guidetolerance="10"
     inkscape:pageopacity="0"
     inkscape:pageshadow="2"
     inkscape:window-width="741"
     inkscape:window-height="480"
     id="namedview53"
     showgrid="false"
     inkscape:zoom="4.2142857"
     inkscape:cx="28"
     inkscape:cy="28"
     inkscape:window-x="59"
     inkscape:window-y="34"
     inkscape:window-maximized="0"
     inkscape:current-layer="Capa_1" /><g
     id="g3"
     style="fill:#ffffff;fill-opacity:1"><path
       d="M8,40c-4.411,0-8,3.589-8,8s3.589,8,8,8s8-3.589,8-8S12.411,40,8,40z M8,54c-3.309,0-6-2.691-6-6s2.691-6,6-6s6,2.691,6,6   S11.309,54,8,54z"
       id="path5"
       style="fill:#ffffff;fill-opacity:1" /><path
       d="M28,40c-4.411,0-8,3.589-8,8s3.589,8,8,8s8-3.589,8-8S32.411,40,28,40z M28,54c-3.309,0-6-2.691-6-6s2.691-6,6-6   s6,2.691,6,6S31.309,54,28,54z"
       id="path7"
       style="fill:#ffffff;fill-opacity:1" /><path
       d="M48,40c-4.411,0-8,3.589-8,8s3.589,8,8,8s8-3.589,8-8S52.411,40,48,40z M48,54c-3.309,0-6-2.691-6-6s2.691-6,6-6   s6,2.691,6,6S51.309,54,48,54z"
       id="path9"
       style="fill:#ffffff;fill-opacity:1" /><path
       d="M8,20c-4.411,0-8,3.589-8,8s3.589,8,8,8s8-3.589,8-8S12.411,20,8,20z M8,34c-3.309,0-6-2.691-6-6s2.691-6,6-6s6,2.691,6,6   S11.309,34,8,34z"
       id="path11"
       style="fill:#ffffff;fill-opacity:1" /><path
       d="M28,20c-4.411,0-8,3.589-8,8s3.589,8,8,8s8-3.589,8-8S32.411,20,28,20z M28,34c-3.309,0-6-2.691-6-6s2.691-6,6-6   s6,2.691,6,6S31.309,34,28,34z"
       id="path13"
       style="fill:#ffffff;fill-opacity:1" /><path
       d="M48,20c-4.411,0-8,3.589-8,8s3.589,8,8,8s8-3.589,8-8S52.411,20,48,20z M48,34c-3.309,0-6-2.691-6-6s2.691-6,6-6   s6,2.691,6,6S51.309,34,48,34z"
       id="path15"
       style="fill:#ffffff;fill-opacity:1" /><path
       d="M8,0C3.589,0,0,3.589,0,8s3.589,8,8,8s8-3.589,8-8S12.411,0,8,0z M8,14c-3.309,0-6-2.691-6-6s2.691-6,6-6s6,2.691,6,6   S11.309,14,8,14z"
       id="path17"
       style="fill:#ffffff;fill-opacity:1" /><path
       d="M28,0c-4.411,0-8,3.589-8,8s3.589,8,8,8s8-3.589,8-8S32.411,0,28,0z M28,14c-3.309,0-6-2.691-6-6s2.691-6,6-6s6,2.691,6,6   S31.309,14,28,14z"
       id="path19"
       style="fill:#ffffff;fill-opacity:1" /><path
       d="M48,16c4.411,0,8-3.589,8-8s-3.589-8-8-8s-8,3.589-8,8S43.589,16,48,16z M48,2c3.309,0,6,2.691,6,6s-2.691,6-6,6   s-6-2.691-6-6S44.691,2,48,2z"
       id="path21"
       style="fill:#ffffff;fill-opacity:1" /></g><g
     id="g23"
     style="fill:#ffffff;fill-opacity:1" /><g
     id="g25"
     style="fill:#ffffff;fill-opacity:1" /><g
     id="g27"
     style="fill:#ffffff;fill-opacity:1" /><g
     id="g29"
     style="fill:#ffffff;fill-opacity:1" /><g
     id="g31"
     style="fill:#ffffff;fill-opacity:1" /><g
     id="g33"
     style="fill:#ffffff;fill-opacity:1" /><g
     id="g35"
     style="fill:#ffffff;fill-opacity:1" /><g
     id="g37"
     style="fill:#ffffff;fill-opacity:1" /><g
     id="g39"
     style="fill:#ffffff;fill-opacity:1" /><g
     id="g41"
     style="fill:#ffffff;fill-opacity:1" /><g
     id="g43"
     style="fill:#ffffff;fill-opacity:1" /><g
     id="g45"
     style="fill:#ffffff;fill-opacity:1" /><g
     id="g47"
     style="fill:#ffffff;fill-opacity:1" /><g
     id="g49"
     style="fill:#ffffff;fill-opacity:1" /><g
     id="g51"
     style="fill:#ffffff;fill-opacity:1" /></svg>