<?xml version="1.0" encoding="UTF-8" standalone="no"?>
<svg
   xmlns:dc="http://purl.org/dc/elements/1.1/"
   xmlns:cc="http://creativecommons.org/ns#"
   xmlns:rdf="http://www.w3.org/1999/02/22-rdf-syntax-ns#"
   xmlns:svg="http://www.w3.org/2000/svg"
   xmlns="http://www.w3.org/2000/svg"
   xmlns:sodipodi="http://sodipodi.sourceforge.net/DTD/sodipodi-0.dtd"
   xmlns:inkscape="http://www.inkscape.org/namespaces/inkscape"
   width="64"
   version="1.1"
   height="64"
   viewBox="0 0 64 64"
   enable-background="new 0 0 64 64"
   id="svg2"
   inkscape:version="0.91 r13725"
   sodipodi:docname="drag_white.svg">
  <metadata
     id="metadata12">
    <rdf:RDF>
      <cc:Work
         rdf:about="">
        <dc:format>image/svg+xml</dc:format>
        <dc:type
           rdf:resource="http://purl.org/dc/dcmitype/StillImage" />
      </cc:Work>
    </rdf:RDF>
  </metadata>
  <defs
     id="defs10" />
  <sodipodi:namedview
     pagecolor="#ffffff"
     bordercolor="#666666"
     borderopacity="1"
     objecttolerance="10"
     gridtolerance="10"
     guidetolerance="10"
     inkscape:pageopacity="0"
     inkscape:pageshadow="2"
     inkscape:window-width="744"
     inkscape:window-height="480"
     id="namedview8"
     showgrid="false"
     inkscape:zoom="3.6875"
     inkscape:cx="-5.2881356"
     inkscape:cy="32"
     inkscape:window-x="49"
     inkscape:window-y="24"
     inkscape:window-maximized="0"
     inkscape:current-layer="svg2" />
  <g
     id="g4"
     style="fill:#ffffff">
    <path
       fill="#1D1D1B"
       d="m63.875,31.203c-0.102-0.246-0.248-0.467-0.435-0.652l-6.837-6.838c-0.783-0.783-2.051-0.783-2.834,0-0.781,0.781-0.781,2.05 0,2.832l3.42,3.42-23.16-.001 .002-23.155 3.568,3.57c0.393,0.392 0.904,0.588 1.418,0.588 0.512,0 1.025-0.196 1.416-0.588 0.783-0.781 0.783-2.051 0-2.834l-6.988-6.99c-0.186-0.186-0.406-0.332-0.652-0.434-0.49-0.203-1.041-0.203-1.531,0-0.244,0.101-0.463,0.246-0.646,0.429 0,0-0.002,0.002-0.004,0.003l-6.844,6.84c-0.781,0.783-0.781,2.051 0,2.834 0.393,0.391 0.904,0.587 1.418,0.587 0.512,0 1.025-0.196 1.416-0.587l3.422-3.42-.002,23.157-23.15-.001 3.417-3.418c0.781-0.782 0.781-2.051 0-2.832-0.783-0.783-2.051-0.783-2.834,0l-6.838,6.84c-0.393,0.391-0.588,0.903-0.588,1.416s0.195,1.025 0.588,1.417l6.988,6.989c0.392,0.393 0.904,0.588 1.417,0.588s1.025-0.195 1.417-0.588c0.782-0.783 0.782-2.051 0-2.833l-3.571-3.571 23.153,.001-.001,23.153-3.418-3.417c-0.783-0.78-2.051-0.782-2.834,0.001-0.781,0.783-0.781,2.052 0,2.834l6.844,6.839c0.391,0.392 0.904,0.587 1.416,0.587 0.513,0 1.025-0.195 1.416-0.587l6.99-6.991c0.783-0.783 0.783-2.053 0-2.834-0.783-0.783-2.051-0.783-2.834,0l-3.572,3.574 .002-23.159 23.16,.001-3.57,3.569c-0.781,0.782-0.781,2.05 0,2.833 0.393,0.393 0.904,0.588 1.418,0.588 0.512,0 1.025-0.195 1.416-0.588l6.989-6.989c0.004-0.005 0.006-0.012 0.012-0.017 0.177-0.182 0.321-0.396 0.421-0.633 0.102-0.246 0.154-0.506 0.154-0.768-0.001-0.259-0.053-0.52-0.155-0.765z"
       id="path6"
       style="fill:#ffffff" />
  </g>
</svg>
