<?xml version="1.0" encoding="UTF-8" standalone="no"?>
<!-- Generator: Adobe Illustrator 16.0.0, SVG Export Plug-In . SVG Version: 6.00 Build 0)  -->

<svg
   xmlns:dc="http://purl.org/dc/elements/1.1/"
   xmlns:cc="http://creativecommons.org/ns#"
   xmlns:rdf="http://www.w3.org/1999/02/22-rdf-syntax-ns#"
   xmlns:svg="http://www.w3.org/2000/svg"
   xmlns="http://www.w3.org/2000/svg"
   xmlns:sodipodi="http://sodipodi.sourceforge.net/DTD/sodipodi-0.dtd"
   xmlns:inkscape="http://www.inkscape.org/namespaces/inkscape"
   version="1.1"
   id="Capa_1"
   x="0px"
   y="0px"
   width="430.117px"
   height="430.118px"
   viewBox="0 0 430.117 430.118"
   style="enable-background:new 0 0 430.117 430.118;"
   xml:space="preserve"
   inkscape:version="0.91 r13725"
   sodipodi:docname="eula_white.svg"><metadata
     id="metadata40"><rdf:RDF><cc:Work
         rdf:about=""><dc:format>image/svg+xml</dc:format><dc:type
           rdf:resource="http://purl.org/dc/dcmitype/StillImage" /></cc:Work></rdf:RDF></metadata><defs
     id="defs38" /><sodipodi:namedview
     pagecolor="#ffffff"
     bordercolor="#666666"
     borderopacity="1"
     objecttolerance="10"
     gridtolerance="10"
     guidetolerance="10"
     inkscape:pageopacity="0"
     inkscape:pageshadow="2"
     inkscape:window-width="1871"
     inkscape:window-height="1056"
     id="namedview36"
     showgrid="false"
     inkscape:zoom="0.54868662"
     inkscape:cx="-184.07643"
     inkscape:cy="215.05901"
     inkscape:window-x="49"
     inkscape:window-y="24"
     inkscape:window-maximized="1"
     inkscape:current-layer="g3" /><g
     id="g3"><path
       id="Creative_Commons"
       d="m 220.34848,216.88154 c 0,-39.08449 26.01686,-62.17517 58.7083,-62.17517 22.45771,0 41.80093,8.21644 53.14771,28.86475 l -26.67779,13.98957 c -6.23085,-13.32584 -16.90738,-16.21288 -22.24517,-16.21288 -19.78229,0 -26.90805,15.32449 -26.90805,35.53373 0,20.2139 8.45694,35.53653 26.90805,35.53653 10.68118,0 19.12974,-4.00288 24.68195,-17.32873 l 24.91686,12.66398 c -10.67186,18.86873 -30.02441,31.30339 -52.70398,31.30339 -35.3678,0.005 -59.82788,-22.41856 -59.82788,-62.17517 z m -55.9928,62.17983 c 22.67771,0 42.03398,-12.43466 52.70398,-31.30805 l -24.90381,-12.66025 c -5.56432,13.32212 -14.01568,17.325 -24.68568,17.325 -18.46229,0 -26.90898,-15.31983 -26.90898,-35.53187 0,-20.20457 7.12017,-35.53466 26.90898,-35.53466 5.3322,0 16.00593,2.88704 22.24051,16.21288 l 26.6722,-13.98957 c -11.33373,-20.65204 -30.6872,-28.86382 -53.14585,-28.86382 -32.6905,0 -58.7083,23.09161 -58.7083,62.17517 0.005,39.75195 24.45356,62.17517 59.82695,62.17517 z M 77.071611,358.05256 C 38.562289,319.59264 18.22534,270.15976 18.22534,216.88154 c 0,-52.72635 20.889746,-103.25457 59.390678,-142.256108 37.409322,-37.894068 85.813052,-58.222627 140.812122,-58.222627 54.99906,0 104.50093,20.328559 143.01211,58.770763 37.9556,37.905262 57.74161,87.337212 57.74161,141.707972 0,54.93195 -19.78694,103.80644 -57.1972,140.61356 -39.60373,38.99034 -90.75093,59.86517 -143.55652,59.86517 -52.79814,0 -102.85933,-20.87483 -141.356529,-59.30771 z M 54.516018,216.88154 c 0,42.84966 17.602796,84.0372 48.947202,115.35365 31.35093,31.30245 72.06678,48.32728 115.51865,48.32728 42.89813,0 84.70279,-17.02483 117.16398,-48.88381 30.78508,-30.21085 46.74347,-69.75864 46.74347,-114.79712 0,-44.48754 -16.4972,-85.12695 -47.3,-115.89525 C 304.23,69.685686 264.09119,52.658992 218.9828,52.658992 c -45.10093,0 -84.71212,16.478559 -115.51492,47.779158 -31.344405,31.85992 -48.951862,73.05398 -48.951862,116.44339 z"
       style="fill:#cfcfcf;fill-opacity:1;stroke:#ffffff;stroke-width:0;stroke-miterlimit:4;stroke-dasharray:none;stroke-opacity:0"
       inkscape:connector-curvature="0" /></g><g
     id="g6" /><g
     id="g8" /><g
     id="g10" /><g
     id="g12" /><g
     id="g14" /><g
     id="g16" /><g
     id="g18" /><g
     id="g20" /><g
     id="g22" /><g
     id="g24" /><g
     id="g26" /><g
     id="g28" /><g
     id="g30" /><g
     id="g32" /><g
     id="g34" /></svg>