<?xml version="1.0" encoding="UTF-8" standalone="no"?>
<!-- Generator: Adobe Illustrator 19.0.0, SVG Export Plug-In . SVG Version: 6.00 Build 0)  -->

<svg
   xmlns:dc="http://purl.org/dc/elements/1.1/"
   xmlns:cc="http://creativecommons.org/ns#"
   xmlns:rdf="http://www.w3.org/1999/02/22-rdf-syntax-ns#"
   xmlns:svg="http://www.w3.org/2000/svg"
   xmlns="http://www.w3.org/2000/svg"
   xmlns:sodipodi="http://sodipodi.sourceforge.net/DTD/sodipodi-0.dtd"
   xmlns:inkscape="http://www.inkscape.org/namespaces/inkscape"
   version="1.1"
   id="Capa_1"
   x="0px"
   y="0px"
   viewBox="0 0 60 60"
   style="enable-background:new 0 0 60 60;"
   xml:space="preserve"
   inkscape:version="0.91 r13725"
   sodipodi:docname="gallery_white.svg"><metadata
     id="metadata47"><rdf:RDF><cc:Work
         rdf:about=""><dc:format>image/svg+xml</dc:format><dc:type
           rdf:resource="http://purl.org/dc/dcmitype/StillImage" /></cc:Work></rdf:RDF></metadata><defs
     id="defs45" /><sodipodi:namedview
     pagecolor="#ffffff"
     bordercolor="#666666"
     borderopacity="1"
     objecttolerance="10"
     gridtolerance="10"
     guidetolerance="10"
     inkscape:pageopacity="0"
     inkscape:pageshadow="2"
     inkscape:window-width="764"
     inkscape:window-height="480"
     id="namedview43"
     showgrid="false"
     inkscape:zoom="3.9333333"
     inkscape:cx="30"
     inkscape:cy="30"
     inkscape:window-x="59"
     inkscape:window-y="34"
     inkscape:window-maximized="0"
     inkscape:current-layer="Capa_1" /><g
     id="g3"
     transform="translate(0,0.1)"
     style="stroke:none;stroke-opacity:1;fill:#ffffff;fill-opacity:1"><path
       d="m 55.201,15.5 -8.524,0 -4,-10 -25.354,0 -4,10 -1.323,0 0,-5 -6,0 0,5 -1.201,0 C 2.152,15.5 0,17.652 0,20.299 L 0,49.667 C 0,52.332 2.168,54.5 4.833,54.5 l 50.334,0 C 57.832,54.5 60,52.332 60,49.667 L 60,20.299 C 60,17.652 57.848,15.5 55.201,15.5 Z M 8,12.5 l 2,0 0,3 -2,0 0,-3 z M 58,49.667 C 58,51.23 56.729,52.5 55.167,52.5 l -50.334,0 C 3.271,52.5 2,51.229 2,49.667 L 2,20.299 C 2,18.756 3.256,17.5 4.799,17.5 l 1.201,0 6,0 2.677,0 4,-10 22.646,0 4,10 9.878,0 c 1.543,0 2.799,1.256 2.799,2.799 l 0,29.368 z"
       id="path5"
       inkscape:connector-curvature="0"
       style="stroke:none;stroke-opacity:1;fill:#ffffff;fill-opacity:1" /><path
       d="m 30,14.5 c -9.925,0 -18,8.075 -18,18 0,9.925 8.075,18 18,18 9.925,0 18,-8.075 18,-18 0,-9.925 -8.075,-18 -18,-18 z m 0,34 c -8.822,0 -16,-7.178 -16,-16 0,-8.822 7.178,-16 16,-16 8.822,0 16,7.178 16,16 0,8.822 -7.178,16 -16,16 z"
       id="path7"
       inkscape:connector-curvature="0"
       style="stroke:none;stroke-opacity:1;fill:#ffffff;fill-opacity:1" /><path
       d="m 30,20.5 c -6.617,0 -12,5.383 -12,12 0,6.617 5.383,12 12,12 6.617,0 12,-5.383 12,-12 0,-6.617 -5.383,-12 -12,-12 z m 0,22 c -5.514,0 -10,-4.486 -10,-10 0,-5.514 4.486,-10 10,-10 5.514,0 10,4.486 10,10 0,5.514 -4.486,10 -10,10 z"
       id="path9"
       inkscape:connector-curvature="0"
       style="stroke:none;stroke-opacity:1;fill:#ffffff;fill-opacity:1" /><path
       d="m 52,19.5 c -2.206,0 -4,1.794 -4,4 0,2.206 1.794,4 4,4 2.206,0 4,-1.794 4,-4 0,-2.206 -1.794,-4 -4,-4 z m 0,6 c -1.103,0 -2,-0.897 -2,-2 0,-1.103 0.897,-2 2,-2 1.103,0 2,0.897 2,2 0,1.103 -0.897,2 -2,2 z"
       id="path11"
       inkscape:connector-curvature="0"
       style="stroke:none;stroke-opacity:1;fill:#ffffff;fill-opacity:1" /></g><g
     id="g13"
     transform="translate(0,0.1)"
     style="stroke:none;stroke-opacity:1;fill:#ffffff;fill-opacity:1" /><g
     id="g15"
     transform="translate(0,0.1)"
     style="stroke:none;stroke-opacity:1;fill:#ffffff;fill-opacity:1" /><g
     id="g17"
     transform="translate(0,0.1)"
     style="stroke:none;stroke-opacity:1;fill:#ffffff;fill-opacity:1" /><g
     id="g19"
     transform="translate(0,0.1)"
     style="stroke:none;stroke-opacity:1;fill:#ffffff;fill-opacity:1" /><g
     id="g21"
     transform="translate(0,0.1)"
     style="stroke:none;stroke-opacity:1;fill:#ffffff;fill-opacity:1" /><g
     id="g23"
     transform="translate(0,0.1)"
     style="stroke:none;stroke-opacity:1;fill:#ffffff;fill-opacity:1" /><g
     id="g25"
     transform="translate(0,0.1)"
     style="stroke:none;stroke-opacity:1;fill:#ffffff;fill-opacity:1" /><g
     id="g27"
     transform="translate(0,0.1)"
     style="stroke:none;stroke-opacity:1;fill:#ffffff;fill-opacity:1" /><g
     id="g29"
     transform="translate(0,0.1)"
     style="stroke:none;stroke-opacity:1;fill:#ffffff;fill-opacity:1" /><g
     id="g31"
     transform="translate(0,0.1)"
     style="stroke:none;stroke-opacity:1;fill:#ffffff;fill-opacity:1" /><g
     id="g33"
     transform="translate(0,0.1)"
     style="stroke:none;stroke-opacity:1;fill:#ffffff;fill-opacity:1" /><g
     id="g35"
     transform="translate(0,0.1)"
     style="stroke:none;stroke-opacity:1;fill:#ffffff;fill-opacity:1" /><g
     id="g37"
     transform="translate(0,0.1)"
     style="stroke:none;stroke-opacity:1;fill:#ffffff;fill-opacity:1" /><g
     id="g39"
     transform="translate(0,0.1)"
     style="stroke:none;stroke-opacity:1;fill:#ffffff;fill-opacity:1" /><g
     id="g41"
     transform="translate(0,0.1)"
     style="stroke:none;stroke-opacity:1;fill:#ffffff;fill-opacity:1" /></svg>