<?xml version="1.0" encoding="UTF-8" standalone="no"?>
<!-- Generator: Adobe Illustrator 16.0.0, SVG Export Plug-In . SVG Version: 6.00 Build 0)  -->

<svg
   xmlns:dc="http://purl.org/dc/elements/1.1/"
   xmlns:cc="http://creativecommons.org/ns#"
   xmlns:rdf="http://www.w3.org/1999/02/22-rdf-syntax-ns#"
   xmlns:svg="http://www.w3.org/2000/svg"
   xmlns="http://www.w3.org/2000/svg"
   xmlns:sodipodi="http://sodipodi.sourceforge.net/DTD/sodipodi-0.dtd"
   xmlns:inkscape="http://www.inkscape.org/namespaces/inkscape"
   version="1.1"
   id="Capa_1"
   x="0px"
   y="0px"
   width="31.29px"
   height="31.29px"
   viewBox="0 0 31.29 31.29"
   style="enable-background:new 0 0 31.29 31.29;"
   xml:space="preserve"
   inkscape:version="0.91 r13725"
   sodipodi:docname="header.svg"><metadata
     id="metadata43"><rdf:RDF><cc:Work
         rdf:about=""><dc:format>image/svg+xml</dc:format><dc:type
           rdf:resource="http://purl.org/dc/dcmitype/StillImage" /></cc:Work></rdf:RDF></metadata><defs
     id="defs41" /><sodipodi:namedview
     pagecolor="#ffffff"
     bordercolor="#666666"
     borderopacity="1"
     objecttolerance="10"
     gridtolerance="10"
     guidetolerance="10"
     inkscape:pageopacity="0"
     inkscape:pageshadow="2"
     inkscape:window-width="1871"
     inkscape:window-height="1056"
     id="namedview39"
     showgrid="false"
     inkscape:zoom="7.5423456"
     inkscape:cx="15.645"
     inkscape:cy="15.645"
     inkscape:window-x="49"
     inkscape:window-y="24"
     inkscape:window-maximized="1"
     inkscape:current-layer="g5" /><g
     id="g3"><g
       id="g5"><path
         d="m 17.985014,27.248664 0,-1.458678 0.45917,0 c 0.395506,0 0.764752,-0.02865 1.110125,-0.08356 0.346963,-0.0573 0.646179,-0.174277 0.900035,-0.348555 0.253856,-0.174277 0.458374,-0.427338 0.611961,-0.754407 0.152792,-0.327865 0.228392,-0.76316 0.228392,-1.307479 l 0,-8.140114 -11.2978003,0 0,8.140114 c 0,0.543523 0.0756,0.978023 0.2283913,1.308275 0.152791,0.326273 0.356513,0.580129 0.611165,0.753611 0.254652,0.175869 0.556256,0.290463 0.907198,0.348555 0.351739,0.0557 0.7178,0.08435 1.102961,0.08435 l 0.45917,0 0,1.458679 -10.1104838,0 0,-1.458679 0.4416622,0 c 0.3955065,0 0.7647522,-0.02865 1.1109199,-0.08435 0.3453718,-0.0565 0.6469754,-0.172686 0.9079939,-0.348555 0.2594268,-0.175868 0.4631485,-0.427338 0.6119607,-0.753611 0.146425,-0.327864 0.2188417,-0.764752 0.2188417,-1.308275 l 0,-17.029859 c 0,-0.5085105 -0.076396,-0.9175454 -0.2283911,-1.2294942 C 6.1039026,4.7246866 5.8969979,4.4851544 5.6375711,4.3156517 5.3773484,4.1461489 5.0757449,4.0355343 4.7287813,3.9846039 4.3857967,3.9328777 4.0205301,3.9082083 3.6361646,3.9082083 l -0.4408664,0 0,-1.4586791 10.1104838,0 0,1.4586791 -0.45917,0 c -0.384365,0 -0.750427,0.027853 -1.102961,0.08515 -0.350147,0.055704 -0.65175,0.1726853 -0.907198,0.3477586 C 10.582597,4.5161902 10.378875,4.7676592 10.225288,5.0963195 10.072497,5.4233883 9.9968967,5.85948 9.9968967,6.4022073 l 0,7.0212357 11.2962073,0 0,-7.0212357 c 0,-0.543523 -0.0764,-0.978819 -0.22839,-1.3066835 C 20.912718,4.7676592 20.7082,4.5153944 20.453548,4.3411169 20.198896,4.1660436 19.899681,4.0498585 19.553512,3.9933576 19.207345,3.9360606 18.83969,3.9082076 18.442593,3.9082076 l -0.45917,0 0,-1.4586791 10.110484,0 0,1.4586791 -0.44007,0 c -0.396303,0 -0.764752,0.027853 -1.110921,0.08515 -0.345371,0.055705 -0.646178,0.172686 -0.907993,0.3477593 -0.259427,0.1750733 -0.463149,0.4265423 -0.611166,0.7544069 -0.148015,0.3270687 -0.220433,0.7631605 -0.220433,1.3066835 l 0,17.0632817 c 0,0.509304 0.07719,0.919135 0.228392,1.229493 0.152791,0.311949 0.360491,0.546706 0.619918,0.703476 0.259428,0.159158 0.561031,0.263405 0.907995,0.315132 0.345371,0.05093 0.709842,0.0764 1.092616,0.0764 l 0.442458,0 0,1.458678 -10.109689,0 z"
         id="path7"
         inkscape:connector-curvature="0"
         style="fill:#2b2b2b;fill-opacity:1" /></g></g><g
     id="g9" /><g
     id="g11" /><g
     id="g13" /><g
     id="g15" /><g
     id="g17" /><g
     id="g19" /><g
     id="g21" /><g
     id="g23" /><g
     id="g25" /><g
     id="g27" /><g
     id="g29" /><g
     id="g31" /><g
     id="g33" /><g
     id="g35" /><g
     id="g37" /></svg>