<?xml version="1.0" encoding="UTF-8" standalone="no"?>
<!-- Generator: Adobe Illustrator 19.1.0, SVG Export Plug-In . SVG Version: 6.00 Build 0)  -->

<svg
   xmlns:dc="http://purl.org/dc/elements/1.1/"
   xmlns:cc="http://creativecommons.org/ns#"
   xmlns:rdf="http://www.w3.org/1999/02/22-rdf-syntax-ns#"
   xmlns:svg="http://www.w3.org/2000/svg"
   xmlns="http://www.w3.org/2000/svg"
   xmlns:sodipodi="http://sodipodi.sourceforge.net/DTD/sodipodi-0.dtd"
   xmlns:inkscape="http://www.inkscape.org/namespaces/inkscape"
   version="1.1"
   id="Capa_1"
   x="0px"
   y="0px"
   viewBox="0 0 76.747 76.747"
   style="enable-background:new 0 0 76.747 76.747;"
   xml:space="preserve"
   inkscape:version="0.91 r13725"
   sodipodi:docname="hidden.svg"><metadata
     id="metadata45"><rdf:RDF><cc:Work
         rdf:about=""><dc:format>image/svg+xml</dc:format><dc:type
           rdf:resource="http://purl.org/dc/dcmitype/StillImage" /></cc:Work></rdf:RDF></metadata><defs
     id="defs43" /><sodipodi:namedview
     pagecolor="#ffffff"
     bordercolor="#666666"
     borderopacity="1"
     objecttolerance="10"
     gridtolerance="10"
     guidetolerance="10"
     inkscape:pageopacity="0"
     inkscape:pageshadow="2"
     inkscape:window-width="1871"
     inkscape:window-height="1056"
     id="namedview41"
     showgrid="false"
     inkscape:zoom="3.0750387"
     inkscape:cx="38.373501"
     inkscape:cy="38.373501"
     inkscape:window-x="49"
     inkscape:window-y="24"
     inkscape:window-maximized="1"
     inkscape:current-layer="Capa_1" /><g
     id="g3"><g
       id="g5"><path
         d="M76.299,37.096C64.25,22.492,51.295,15.311,37.792,15.657C16.007,16.266,1.011,36.331,0.383,37.184    c-0.029,0.04-0.049,0.084-0.074,0.126c-0.021,0.032-0.04,0.065-0.059,0.1c-0.045,0.08-0.083,0.16-0.115,0.243    c-0.015,0.04-0.028,0.08-0.041,0.12c-0.025,0.079-0.046,0.158-0.061,0.238c-0.01,0.052-0.016,0.104-0.021,0.157    C0.005,38.236,0,38.304,0,38.373c0,0.068,0.005,0.136,0.012,0.204c0.006,0.053,0.012,0.104,0.021,0.157    c0.015,0.08,0.036,0.159,0.061,0.238c0.013,0.04,0.026,0.08,0.041,0.12c0.032,0.083,0.071,0.163,0.115,0.243    c0.019,0.034,0.037,0.066,0.059,0.1c0.025,0.041,0.045,0.086,0.074,0.126c0.628,0.854,15.624,20.918,37.409,21.527    c0.337,0.009,0.672,0.014,1.007,0.014c13.139,0,25.75-7.213,37.5-21.453c0.309-0.374,0.449-0.827,0.448-1.276    C76.748,37.923,76.608,37.47,76.299,37.096z M37.928,57.091C20.99,56.63,8.047,42.574,4.55,38.373    c3.497-4.201,16.439-18.258,33.378-18.719c11.822-0.309,23.305,5.989,34.201,18.719C61.234,51.104,49.762,57.433,37.928,57.091z"
         id="path7" /><path
         d="M39.375,25.206c-7.261,0-13.167,5.906-13.167,13.166c0,7.261,5.906,13.167,13.167,13.167s13.167-5.906,13.167-13.167    C52.542,31.112,46.636,25.206,39.375,25.206z M39.375,47.539c-5.055,0-9.167-4.112-9.167-9.167c0-5.054,4.112-9.166,9.167-9.166    s9.167,4.112,9.167,9.166S44.43,47.539,39.375,47.539z"
         id="path9" /></g></g><g
     id="g11" /><g
     id="g13" /><g
     id="g15" /><g
     id="g17" /><g
     id="g19" /><g
     id="g21" /><g
     id="g23" /><g
     id="g25" /><g
     id="g27" /><g
     id="g29" /><g
     id="g31" /><g
     id="g33" /><g
     id="g35" /><g
     id="g37" /><g
     id="g39" /><rect
     style="opacity:1;fill:#000000;fill-opacity:1;stroke:#ffffff;stroke-width:2.64331627;stroke-linecap:round;stroke-linejoin:miter;stroke-miterlimit:4;stroke-dasharray:none;stroke-dashoffset:0;stroke-opacity:1"
     id="rect4173"
     width="6.6482959"
     height="81.347389"
     x="50.490364"
     y="-35.844631"
     transform="matrix(0.73849602,0.67425783,-0.68110574,0.73218507,0,0)" /></svg>