<?xml version="1.0" encoding="UTF-8" standalone="no"?>
<!-- Generator: Adobe Illustrator 19.0.0, SVG Export Plug-In . SVG Version: 6.00 Build 0)  -->

<svg
   xmlns:dc="http://purl.org/dc/elements/1.1/"
   xmlns:cc="http://creativecommons.org/ns#"
   xmlns:rdf="http://www.w3.org/1999/02/22-rdf-syntax-ns#"
   xmlns:svg="http://www.w3.org/2000/svg"
   xmlns="http://www.w3.org/2000/svg"
   xmlns:sodipodi="http://sodipodi.sourceforge.net/DTD/sodipodi-0.dtd"
   xmlns:inkscape="http://www.inkscape.org/namespaces/inkscape"
   version="1.1"
   id="Capa_1"
   x="0px"
   y="0px"
   viewBox="0 0 60 60"
   style="enable-background:new 0 0 60 60;"
   xml:space="preserve"
   inkscape:version="0.91 r13725"
   sodipodi:docname="list_white.svg"><metadata
     id="metadata53"><rdf:RDF><cc:Work
         rdf:about=""><dc:format>image/svg+xml</dc:format><dc:type
           rdf:resource="http://purl.org/dc/dcmitype/StillImage" /></cc:Work></rdf:RDF></metadata><defs
     id="defs51" /><sodipodi:namedview
     pagecolor="#ffffff"
     bordercolor="#666666"
     borderopacity="1"
     objecttolerance="10"
     gridtolerance="10"
     guidetolerance="10"
     inkscape:pageopacity="0"
     inkscape:pageshadow="2"
     inkscape:window-width="764"
     inkscape:window-height="480"
     id="namedview49"
     showgrid="false"
     inkscape:zoom="3.9333333"
     inkscape:cx="30"
     inkscape:cy="30"
     inkscape:window-x="59"
     inkscape:window-y="34"
     inkscape:window-maximized="0"
     inkscape:current-layer="Capa_1" /><g
     id="g3"
     style="fill:#ffffff;fill-opacity:1"><path
       d="M23.429,17H47c0.552,0,1-0.447,1-1s-0.448-1-1-1H23.429c-0.552,0-1,0.447-1,1S22.877,17,23.429,17z"
       id="path5"
       style="fill:#ffffff;fill-opacity:1" /><path
       d="M23.429,32H47c0.552,0,1-0.447,1-1s-0.448-1-1-1H23.429c-0.552,0-1,0.447-1,1S22.877,32,23.429,32z"
       id="path7"
       style="fill:#ffffff;fill-opacity:1" /><path
       d="M23.429,47H47c0.552,0,1-0.447,1-1s-0.448-1-1-1H23.429c-0.552,0-1,0.447-1,1S22.877,47,23.429,47z"
       id="path9"
       style="fill:#ffffff;fill-opacity:1" /><path
       d="M59,0H1C0.448,0,0,0.447,0,1v58c0,0.553,0.448,1,1,1h58c0.552,0,1-0.447,1-1V1C60,0.447,59.552,0,59,0z M58,58H2V2h56V58z"
       id="path11"
       style="fill:#ffffff;fill-opacity:1" /><polygon
       points="12.501,18.474 14.929,17.197 17.357,18.474 16.894,15.77 18.858,13.854 16.143,13.46 14.929,11 13.715,13.46    11,13.854 12.965,15.77  "
       id="polygon13"
       style="fill:#ffffff;fill-opacity:1" /><polygon
       points="12.501,33.557 14.929,32.28 17.357,33.557 16.894,30.853 18.858,28.938 16.143,28.543 14.929,26.083    13.715,28.543 11,28.938 12.965,30.853  "
       id="polygon15"
       style="fill:#ffffff;fill-opacity:1" /><polygon
       points="12.501,49 14.929,47.723 17.357,49 16.894,46.296 18.858,44.381 16.143,43.986 14.929,41.526 13.715,43.986    11,44.381 12.965,46.296  "
       id="polygon17"
       style="fill:#ffffff;fill-opacity:1" /></g><g
     id="g19"
     style="fill:#ffffff;fill-opacity:1" /><g
     id="g21"
     style="fill:#ffffff;fill-opacity:1" /><g
     id="g23"
     style="fill:#ffffff;fill-opacity:1" /><g
     id="g25"
     style="fill:#ffffff;fill-opacity:1" /><g
     id="g27"
     style="fill:#ffffff;fill-opacity:1" /><g
     id="g29"
     style="fill:#ffffff;fill-opacity:1" /><g
     id="g31"
     style="fill:#ffffff;fill-opacity:1" /><g
     id="g33"
     style="fill:#ffffff;fill-opacity:1" /><g
     id="g35"
     style="fill:#ffffff;fill-opacity:1" /><g
     id="g37"
     style="fill:#ffffff;fill-opacity:1" /><g
     id="g39"
     style="fill:#ffffff;fill-opacity:1" /><g
     id="g41"
     style="fill:#ffffff;fill-opacity:1" /><g
     id="g43"
     style="fill:#ffffff;fill-opacity:1" /><g
     id="g45"
     style="fill:#ffffff;fill-opacity:1" /><g
     id="g47"
     style="fill:#ffffff;fill-opacity:1" /></svg>