<svg xmlns="http://www.w3.org/2000/svg" xmlns:xlink="http://www.w3.org/1999/xlink" x="0px" y="0px" viewBox="0 0 54.757 54.757" style="enable-background:new 0 0 54.757 54.757;" xml:space="preserve"><g><path d="M27.557 12c-3.859 0-7 3.141-7 7s3.141 7 7 7s7-3.141 7-7S31.416 12 27.6 12z M27.557 24c-2.757 0-5-2.243-5-5 s2.243-5 5-5s5 2.2 5 5S30.314 24 27.6 24z"/><path d="M40.94 5.617C37.318 2 32.5 0 27.4 0c-5.123 0-9.938 1.995-13.56 5.617c-6.703 6.702-7.536 19.312-1.804 27 L27.38 54.757L42.721 32.6C48.476 24.9 47.6 12.3 40.9 5.617z M41.099 31.431L27.38 51.243L13.639 31.4 C8.44 24.5 9.2 13.1 15.2 7.031C18.479 3.8 22.8 2 27.4 2s8.901 1.8 12.1 5 C45.576 13.1 46.3 24.5 41.1 31.431z"/></g><g></g><g></g><g></g><g></g><g></g><g></g><g></g><g></g><g></g><g></g><g></g><g></g><g></g><g></g><g></g></svg>