<?xml version="1.0" encoding="UTF-8" standalone="no"?>
<!-- Generator: Adobe Illustrator 16.0.0, SVG Export Plug-In . SVG Version: 6.00 Build 0)  -->

<svg
   xmlns:dc="http://purl.org/dc/elements/1.1/"
   xmlns:cc="http://creativecommons.org/ns#"
   xmlns:rdf="http://www.w3.org/1999/02/22-rdf-syntax-ns#"
   xmlns:svg="http://www.w3.org/2000/svg"
   xmlns="http://www.w3.org/2000/svg"
   xmlns:sodipodi="http://sodipodi.sourceforge.net/DTD/sodipodi-0.dtd"
   xmlns:inkscape="http://www.inkscape.org/namespaces/inkscape"
   version="1.1"
   id="Capa_1"
   x="0px"
   y="0px"
   width="649.92px"
   height="649.92px"
   viewBox="0 0 649.92 649.92"
   style="enable-background:new 0 0 649.92 649.92;"
   xml:space="preserve"
   inkscape:version="0.91 r13725"
   sodipodi:docname="on.svg"><metadata
     id="metadata45"><rdf:RDF><cc:Work
         rdf:about=""><dc:format>image/svg+xml</dc:format><dc:type
           rdf:resource="http://purl.org/dc/dcmitype/StillImage" /></cc:Work></rdf:RDF></metadata><defs
     id="defs43" /><sodipodi:namedview
     pagecolor="#ffffff"
     bordercolor="#666666"
     borderopacity="1"
     objecttolerance="10"
     gridtolerance="10"
     guidetolerance="10"
     inkscape:pageopacity="0"
     inkscape:pageshadow="2"
     inkscape:window-width="1871"
     inkscape:window-height="1056"
     id="namedview41"
     showgrid="false"
     inkscape:zoom="0.51353153"
     inkscape:cx="116.37212"
     inkscape:cy="290.01052"
     inkscape:window-x="49"
     inkscape:window-y="24"
     inkscape:window-maximized="1"
     inkscape:current-layer="g5" /><g
     id="g3"
     transform="matrix(0.93644078,0,0,0.93644078,28.744065,33.046778)"><g
       id="g5"
       transform="matrix(1.0511932,0,0,1.0511932,-25.274697,-29.869974)"
       style="fill:#007845;fill-opacity:1;stroke:#007845;stroke-opacity:1;stroke-width:10.14242282;stroke-miterlimit:4;stroke-dasharray:none"><path
         d="m 324.96399,268.6766 c 15.13568,0 27.69522,-15.16146 27.69522,-33.43395 l 0,-201.390921 c 0,-18.272481 -12.55954,-33.4339431 -27.69522,-33.4339431 -15.45979,0 -27.6962,14.7713951 -27.6962,33.4339431 l 0,201.390921 c 0,18.66255 12.23641,33.43395 27.6962,33.43395 z"
         id="path7"
         inkscape:connector-curvature="0"
         style="fill:#007845;fill-opacity:1;stroke:#007845;stroke-width:10.97799492;stroke-miterlimit:4;stroke-dasharray:none;stroke-opacity:1" /><path
         d="m 579.963,175.233 c -34,-51.332 -79.334,-89.51 -136.002,-113.119 -10.029,-4.178 -20.595,0.656 -24.515,10.134 -3.927,9.485 0.355,20.854 9.806,24.85 50.049,21.174 89.573,54.268 119.326,99.058 29.753,44.783 44.79,94.155 44.79,148.095 0,36.288 -7.198,71.266 -21.252,104.289 -14.061,33.017 -33.345,61.787 -57.211,85.653 -23.866,23.866 -52.636,43.15 -85.653,57.211 -33.023,14.054 -68.001,21.251 -104.288,21.251 -36.289,0 -71.272,-7.197 -104.289,-21.251 C 187.658,577.343 158.888,558.059 135.022,534.193 111.156,510.326 91.864,481.556 77.811,448.54 63.751,415.517 56.56,380.539 56.56,344.251 c 0,-53.292 14.381,-102.329 43.479,-147.118 29.098,-44.79 68.266,-78.281 117.038,-99.386 9.416,-4.073 14.465,-14.89 10.134,-24.187 C 222.706,63.879 211.77,59.311 202.368,63.426 146.704,87.759 102.325,125.868 68.98,176.865 35.635,227.862 18.96,283.769 18.96,344.251 c 0,41.52 8.035,81.134 24.194,118.67 16.208,37.655 38.332,70.205 65.385,97.427 27.214,27.381 59.799,49.421 97.426,65.385 37.892,16.076 77.479,24.188 118.998,24.188 41.519,0 81.05,-8.229 118.67,-24.188 37.898,-16.083 70.532,-38.004 97.754,-65.385 27.054,-27.222 48.897,-59.89 65.057,-97.427 16.209,-37.654 24.516,-77.15 24.516,-118.67 0,-61.465 -16.997,-117.693 -50.997,-169.018 z"
         id="path9"
         inkscape:connector-curvature="0"
         style="fill:#007845;fill-opacity:1;stroke:#007845;stroke-opacity:1;stroke-width:10.14242282;stroke-miterlimit:4;stroke-dasharray:none" /></g></g><g
     id="g11" /><g
     id="g13" /><g
     id="g15" /><g
     id="g17" /><g
     id="g19" /><g
     id="g21" /><g
     id="g23" /><g
     id="g25" /><g
     id="g27" /><g
     id="g29" /><g
     id="g31" /><g
     id="g33" /><g
     id="g35" /><g
     id="g37" /><g
     id="g39" /></svg>