<?xml version="1.0" encoding="UTF-8" standalone="no"?>
<!-- Generator: Adobe Illustrator 19.0.0, SVG Export Plug-In . SVG Version: 6.00 Build 0)  -->

<svg
   xmlns:dc="http://purl.org/dc/elements/1.1/"
   xmlns:cc="http://creativecommons.org/ns#"
   xmlns:rdf="http://www.w3.org/1999/02/22-rdf-syntax-ns#"
   xmlns:svg="http://www.w3.org/2000/svg"
   xmlns="http://www.w3.org/2000/svg"
   xmlns:sodipodi="http://sodipodi.sourceforge.net/DTD/sodipodi-0.dtd"
   xmlns:inkscape="http://www.inkscape.org/namespaces/inkscape"
   version="1.1"
   id="Layer_1"
   x="0px"
   y="0px"
   viewBox="0 0 310 310"
   style="enable-background:new 0 0 310 310;"
   xml:space="preserve"
   inkscape:version="0.91 r13725"
   sodipodi:docname="paragraph.svg"><metadata
     id="metadata39"><rdf:RDF><cc:Work
         rdf:about=""><dc:format>image/svg+xml</dc:format><dc:type
           rdf:resource="http://purl.org/dc/dcmitype/StillImage" /></cc:Work></rdf:RDF></metadata><defs
     id="defs37" /><sodipodi:namedview
     pagecolor="#ffffff"
     bordercolor="#666666"
     borderopacity="1"
     objecttolerance="10"
     gridtolerance="10"
     guidetolerance="10"
     inkscape:pageopacity="0"
     inkscape:pageshadow="2"
     inkscape:window-width="1871"
     inkscape:window-height="1056"
     id="namedview35"
     showgrid="false"
     inkscape:zoom="0.76129032"
     inkscape:cx="153.68644"
     inkscape:cy="155"
     inkscape:window-x="49"
     inkscape:window-y="24"
     inkscape:window-maximized="1"
     inkscape:current-layer="Layer_1" /><path
     d="m 264.55244,26.236945 -149.53129,0 c -38.363087,0 -69.57359,31.210503 -69.57359,69.573583 0,38.363092 31.210503,69.573602 69.57359,69.573602 l 29.07553,0 0,118.37893 24.92188,0 0,-232.604233 33.22917,0 0,232.604233 24.92188,0 0,-232.604233 37.38283,0 0,-24.921882 z m -120.45576,114.225295 -29.07553,0 c -24.621162,0 -44.651708,-20.03054 -44.651708,-44.651712 0,-24.62115 20.030546,-44.651701 44.651708,-44.651701 l 29.07553,0 0,89.303413 z"
     id="path3"
     inkscape:connector-curvature="0"
     style="fill:#383838;fill-opacity:1" /><g
     id="g5"
     transform="matrix(0.80084746,0,0,0.80084746,4.6054025,61.737288)"
     style="fill:#383838;fill-opacity:1" /><g
     id="g7"
     transform="matrix(0.80084746,0,0,0.80084746,4.6054025,61.737288)"
     style="fill:#383838;fill-opacity:1" /><g
     id="g9"
     transform="matrix(0.80084746,0,0,0.80084746,4.6054025,61.737288)"
     style="fill:#383838;fill-opacity:1" /><g
     id="g11"
     transform="matrix(0.80084746,0,0,0.80084746,4.6054025,61.737288)"
     style="fill:#383838;fill-opacity:1" /><g
     id="g13"
     transform="matrix(0.80084746,0,0,0.80084746,4.6054025,61.737288)"
     style="fill:#383838;fill-opacity:1" /><g
     id="g15"
     transform="matrix(0.80084746,0,0,0.80084746,4.6054025,61.737288)"
     style="fill:#383838;fill-opacity:1" /><g
     id="g17"
     transform="matrix(0.80084746,0,0,0.80084746,4.6054025,61.737288)"
     style="fill:#383838;fill-opacity:1" /><g
     id="g19"
     transform="matrix(0.80084746,0,0,0.80084746,4.6054025,61.737288)"
     style="fill:#383838;fill-opacity:1" /><g
     id="g21"
     transform="matrix(0.80084746,0,0,0.80084746,4.6054025,61.737288)"
     style="fill:#383838;fill-opacity:1" /><g
     id="g23"
     transform="matrix(0.80084746,0,0,0.80084746,4.6054025,61.737288)"
     style="fill:#383838;fill-opacity:1" /><g
     id="g25"
     transform="matrix(0.80084746,0,0,0.80084746,4.6054025,61.737288)"
     style="fill:#383838;fill-opacity:1" /><g
     id="g27"
     transform="matrix(0.80084746,0,0,0.80084746,4.6054025,61.737288)"
     style="fill:#383838;fill-opacity:1" /><g
     id="g29"
     transform="matrix(0.80084746,0,0,0.80084746,4.6054025,61.737288)"
     style="fill:#383838;fill-opacity:1" /><g
     id="g31"
     transform="matrix(0.80084746,0,0,0.80084746,4.6054025,61.737288)"
     style="fill:#383838;fill-opacity:1" /><g
     id="g33"
     transform="matrix(0.80084746,0,0,0.80084746,4.6054025,61.737288)"
     style="fill:#383838;fill-opacity:1" /></svg>