<?xml version="1.0" encoding="UTF-8" standalone="no"?>
<!-- Generator: Adobe Illustrator 19.0.0, SVG Export Plug-In . SVG Version: 6.00 Build 0)  -->

<svg
   xmlns:dc="http://purl.org/dc/elements/1.1/"
   xmlns:cc="http://creativecommons.org/ns#"
   xmlns:rdf="http://www.w3.org/1999/02/22-rdf-syntax-ns#"
   xmlns:svg="http://www.w3.org/2000/svg"
   xmlns="http://www.w3.org/2000/svg"
   xmlns:sodipodi="http://sodipodi.sourceforge.net/DTD/sodipodi-0.dtd"
   xmlns:inkscape="http://www.inkscape.org/namespaces/inkscape"
   version="1.1"
   id="Capa_1"
   x="0px"
   y="0px"
   viewBox="0 0 37 37"
   style="enable-background:new 0 0 37 37;"
   xml:space="preserve"
   inkscape:version="0.91 r13725"
   sodipodi:docname="poll.svg"><metadata
     id="metadata43"><rdf:RDF><cc:Work
         rdf:about=""><dc:format>image/svg+xml</dc:format><dc:type
           rdf:resource="http://purl.org/dc/dcmitype/StillImage" /></cc:Work></rdf:RDF></metadata><defs
     id="defs41" /><sodipodi:namedview
     pagecolor="#ffffff"
     bordercolor="#666666"
     borderopacity="1"
     objecttolerance="10"
     gridtolerance="10"
     guidetolerance="10"
     inkscape:pageopacity="0"
     inkscape:pageshadow="2"
     inkscape:window-width="1871"
     inkscape:window-height="1056"
     id="namedview39"
     showgrid="false"
     inkscape:zoom="6.3783784"
     inkscape:cx="18.5"
     inkscape:cy="18.5"
     inkscape:window-x="49"
     inkscape:window-y="24"
     inkscape:window-maximized="1"
     inkscape:current-layer="Capa_1" /><g
     id="g3"
     style="stroke:#000000;stroke-opacity:1;stroke-width:0.79467185;stroke-miterlimit:4;stroke-dasharray:none"
     transform="matrix(0.97524532,0,0,0.97524532,0.45796158,0.45796158)"><path
       d="M 16.5,37 C 7.402,37 0,29.598 0,20.5 0,11.402 7.402,4 16.5,4 16.776,4 17,4.224 17,4.5 L 17,20 32.5,20 C 32.776,20 33,20.224 33,20.5 33,29.598 25.598,37 16.5,37 Z M 16,5.008 C 7.684,5.273 1,12.121 1,20.5 1,29.047 7.953,36 16.5,36 24.879,36 31.727,29.316 31.992,21 L 16.5,21 C 16.224,21 16,20.776 16,20.5 L 16,5.008 Z"
       id="path5"
       style="stroke:#000000;stroke-opacity:1;stroke-width:0.79467185;stroke-miterlimit:4;stroke-dasharray:none"
       inkscape:connector-curvature="0" /><path
       d="m 36.5,17 -16,0 C 20.224,17 20,16.776 20,16.5 l 0,-16 C 20,0.224 20.224,0 20.5,0 29.598,0 37,7.402 37,16.5 37,16.776 36.776,17 36.5,17 Z M 21,16 35.992,16 C 35.732,7.85 29.149,1.268 21,1.008 L 21,16 Z"
       id="path7"
       style="stroke:#000000;stroke-opacity:1;stroke-width:0.79467185;stroke-miterlimit:4;stroke-dasharray:none"
       inkscape:connector-curvature="0" /></g><g
     id="g9"
     style="stroke-width:0.775;stroke-miterlimit:4;stroke-dasharray:none" /><g
     id="g11"
     style="stroke-width:0.775;stroke-miterlimit:4;stroke-dasharray:none" /><g
     id="g13"
     style="stroke-width:0.775;stroke-miterlimit:4;stroke-dasharray:none" /><g
     id="g15"
     style="stroke-width:0.775;stroke-miterlimit:4;stroke-dasharray:none" /><g
     id="g17"
     style="stroke-width:0.775;stroke-miterlimit:4;stroke-dasharray:none" /><g
     id="g19"
     style="stroke-width:0.775;stroke-miterlimit:4;stroke-dasharray:none" /><g
     id="g21"
     style="stroke-width:0.775;stroke-miterlimit:4;stroke-dasharray:none" /><g
     id="g23"
     style="stroke-width:0.775;stroke-miterlimit:4;stroke-dasharray:none" /><g
     id="g25"
     style="stroke-width:0.775;stroke-miterlimit:4;stroke-dasharray:none" /><g
     id="g27"
     style="stroke-width:0.775;stroke-miterlimit:4;stroke-dasharray:none" /><g
     id="g29"
     style="stroke-width:0.775;stroke-miterlimit:4;stroke-dasharray:none" /><g
     id="g31"
     style="stroke-width:0.775;stroke-miterlimit:4;stroke-dasharray:none" /><g
     id="g33"
     style="stroke-width:0.775;stroke-miterlimit:4;stroke-dasharray:none" /><g
     id="g35"
     style="stroke-width:0.775;stroke-miterlimit:4;stroke-dasharray:none" /><g
     id="g37"
     style="stroke-width:0.775;stroke-miterlimit:4;stroke-dasharray:none" /></svg>