<?xml version="1.0" encoding="iso-8859-1"?>
<!-- Generator: Adobe Illustrator 19.0.0, SVG Export Plug-In . SVG Version: 6.00 Build 0)  -->
<svg version="1.1" id="Capa_1" xmlns="http://www.w3.org/2000/svg" xmlns:xlink="http://www.w3.org/1999/xlink" x="0px" y="0px"
	 viewBox="0 0 64 64" style="enable-background:new 0 0 64 64;" xml:space="preserve">
<g id="Crown_1_">
	<path id="Crown" d="M60.999,16C59.346,16,58,17.346,58,19c0,0.823,0.334,1.569,0.872,2.111L46.798,31.632l-3.767-14.826
		C44.176,16.383,45,15.29,45,14c0-1.654-1.347-3-3.001-3C40.346,11,39,12.346,39,14c0,1.037,0.529,1.952,1.331,2.491l-7.796,12.916
		L23.84,16.351C24.541,15.802,25,14.957,25,14c0-1.654-1.347-3-3.001-3C20.346,11,19,12.346,19,14c0,1.379,0.94,2.531,2.209,2.881
		l-2.961,14.761L5.143,21.092C5.671,20.551,6,19.814,6,19c0-1.654-1.347-3-3.001-3C1.346,16,0,17.346,0,19s1.346,3,2.999,3
		c0.03,0,0.057-0.008,0.086-0.009L9.097,53h46.991l4.841-31.007c0.024,0,0.046,0.007,0.071,0.007C62.653,22,64,20.654,64,19
		S62.653,16,60.999,16z M41.999,13C42.551,13,43,13.449,43,14s-0.449,1-1.001,1C41.448,15,41,14.551,41,14S41.448,13,41.999,13z
		 M21.999,13C22.551,13,23,13.449,23,14s-0.449,1-1.001,1C21.448,15,21,14.551,21,14S21.448,13,21.999,13z M2,19
		c0-0.551,0.448-1,0.999-1C3.551,18,4,18.449,4,19s-0.449,1-1.001,1C2.448,20,2,19.551,2,19z M10.747,51l-0.582-3h44.678l-0.468,3
		H10.747z M55.156,46H10c-0.076,0-0.143,0.027-0.214,0.043L5.502,23.948l12.775,10.285l1.608-0.582l3.026-15.088l8.834,13.264
		l1.689-0.038l7.981-13.224l3.845,15.135l1.626,0.508l11.703-10.197L55.156,46z M60.999,20C60.448,20,60,19.551,60,19
		s0.448-1,0.999-1C61.551,18,62,18.449,62,19S61.551,20,60.999,20z"/>
</g>
<g>
</g>
<g>
</g>
<g>
</g>
<g>
</g>
<g>
</g>
<g>
</g>
<g>
</g>
<g>
</g>
<g>
</g>
<g>
</g>
<g>
</g>
<g>
</g>
<g>
</g>
<g>
</g>
<g>
</g>
</svg>
