<svg xmlns="http://www.w3.org/2000/svg" xmlns:xlink="http://www.w3.org/1999/xlink" x="0px" y="0px" viewBox="0 0 76.747 76.747" style="enable-background:new 0 0 76.747 76.747;" xml:space="preserve"><g><g><path d="M76.299 37.096C64.25 22.5 51.3 15.3 37.8 15.657C16.007 16.3 1 36.3 0.4 37.2 c-0.029 0.04-0.049 0.084-0.074 0.126c-0.021 0.032-0.04 0.065-0.059 0.1c-0.045 0.08-0.083 0.16-0.115 0.2 c-0.015 0.04-0.028 0.08-0.041 0.12c-0.025 0.079-0.046 0.158-0.061 0.238c-0.01 0.052-0.016 0.104-0.021 0.2 C0.005 38.2 0 38.3 0 38.373c0 0.1 0 0.1 0 0.204c0.006 0.1 0 0.1 0 0.2 c0.015 0.1 0 0.2 0.1 0.238c0.013 0 0 0.1 0 0.12c0.032 0.1 0.1 0.2 0.1 0.2 c0.019 0 0 0.1 0.1 0.1c0.025 0 0 0.1 0.1 0.126c0.628 0.9 15.6 20.9 37.4 21.5 c0.337 0 0.7 0 1 0.014c13.139 0 25.75-7.213 37.5-21.453c0.309-0.374 0.449-0.827 0.448-1.276 C76.748 37.9 76.6 37.5 76.3 37.096z M37.928 57.091C20.99 56.6 8 42.6 4.5 38.4 c3.497-4.201 16.439-18.258 33.378-18.719c11.822-0.309 23.3 6 34.2 18.719C61.234 51.1 49.8 57.4 37.9 57.091z"/><path d="M39.375 25.206c-7.261 0-13.167 5.906-13.167 13.166c0 7.3 5.9 13.2 13.2 13.167s13.167-5.906 13.167-13.167 C52.542 31.1 46.6 25.2 39.4 25.206z M39.375 47.539c-5.055 0-9.167-4.112-9.167-9.167c0-5.054 4.112-9.166 9.167-9.166 s9.167 4.1 9.2 9.166S44.43 47.5 39.4 47.539z"/></g></g><g></g><g></g><g></g><g></g><g></g><g></g><g></g><g></g><g></g><g></g><g></g><g></g><g></g><g></g><g></g></svg>