<svg xmlns="http://www.w3.org/2000/svg" xmlns:xlink="http://www.w3.org/1999/xlink" width="512px" height="512px" viewBox="0 0 64 64" enable-background="new 0 0 64 64"><g><g fill="#1D1D1B"><circle cx="32.1" cy="50.1" r="2.3" fill="#FFFFFF"/><path d="m30.08 25.012v17.308c0 1.1 0.9 2 2 2.005s2.006-0.897 2.006-2.005v-17.308c0-1.107-0.897-2.006-2.006-2.006s-2.006 0.898-2.006 2.006z" fill="#FFFFFF"/><path d="M63.766 59.234L33.856 3.082c-0.697-1.308-2.844-1.308-3.54 0L0.407 59.2 c-0.331 0.622-0.312 1.4 0.1 1.975c0.362 0.6 1 1 1.7 0.975h59.816c0.705 0 1.357-0.369 1.721-0.975 C64.076 60.6 64.1 59.9 63.8 59.234z M5.519 58.172L32.086 8.291l26.568 49.881H5.519z" fill="#FFFFFF"/></g></g></svg>